<?xml version="1.0" encoding="UTF-8" standalone="no"?>
<!DOCTYPE svg PUBLIC "-//W3C//DTD SVG 1.1//EN" "http://www.w3.org/Graphics/SVG/1.1/DTD/svg11.dtd">
<svg width="100%" height="100%" viewBox="0 0 107 162" version="1.1" xmlns="http://www.w3.org/2000/svg" xmlns:xlink="http://www.w3.org/1999/xlink" xml:space="preserve" xmlns:serif="http://www.serif.com/" style="fill-rule:evenodd;clip-rule:evenodd;stroke-linejoin:round;stroke-miterlimit:2;">
    <g transform="matrix(1,0,0,1,-4184.12,-1098.08)">
        <g transform="matrix(0.286195,0,0,0.261905,2667.43,919.72)">
            <g transform="matrix(1.59279,0,0,1.74051,793.007,196.057)">
                <path d="M2917.95,402.12C2926.91,399.913 2936.27,398.742 2945.9,398.742C3010.25,398.742 3062.5,450.987 3062.5,515.337C3062.5,579.688 3010.25,631.932 2945.9,631.932C2881.55,631.932 2829.31,579.688 2829.31,515.337C2829.31,476.811 2848.03,442.624 2876.87,421.39C2887.28,433.209 2903.01,445.939 2920.37,455.829C2903.74,463.163 2890.62,477.158 2884.52,494.537C2882.62,493.989 2880.6,493.695 2878.53,493.695C2866.58,493.695 2856.88,503.392 2856.88,515.337C2856.88,564.468 2896.77,604.356 2945.9,604.356C2995.03,604.356 3034.92,564.468 3034.92,515.337C3034.92,475.078 3008.14,441.025 2971.43,430.04C2970.4,429.641 2969.32,429.318 2968.2,429.076C2950.52,425.252 2931.02,413.834 2917.95,402.12ZM2936.45,521.946C2926.4,517.548 2919.38,507.517 2919.38,495.858C2919.38,480.148 2932.13,467.393 2947.84,467.393C2963.55,467.393 2976.3,480.148 2976.3,495.858C2976.3,507.517 2969.28,517.548 2959.24,521.946L2959.24,559.853C2959.24,562.997 2956.68,565.55 2953.54,565.55L2942.14,565.55C2939,565.55 2936.45,562.997 2936.45,559.853L2936.45,521.946Z"/>
            </g>
            <g transform="matrix(9.02378e-18,3.35884,-3.07376,9.8607e-18,7495.21,-861.727)">
                <path d="M501.326,680.73C505.247,680.73 508.431,683.913 508.431,687.834C508.431,691.756 505.247,694.939 501.326,694.939C478.135,694.939 459.307,676.111 459.307,652.92C459.307,629.73 478.135,610.902 501.326,610.902C505.247,610.902 508.431,614.085 508.431,618.007C508.431,621.928 505.247,625.111 501.326,625.111C485.978,625.111 473.517,637.572 473.517,652.92C473.517,668.269 485.978,680.73 501.326,680.73Z"/>
            </g>
        </g>
    </g>
</svg>
